<mxfile host="app.diagrams.net" modified="2024-03-26T22:04:08.365Z" agent="Mozilla/5.0 (Windows NT 10.0; Win64; x64) AppleWebKit/537.36 (KHTML, like Gecko) Chrome/122.0.0.0 Safari/537.36 Edg/122.0.0.0" etag="OsQ_1V3TkeB-U4SNx8me" version="24.1.0" type="github">
  <diagram name="Page-1" id="j8Do_PMkOM-cNPbMsA3i">
    <mxGraphModel dx="881" dy="496" grid="1" gridSize="10" guides="1" tooltips="1" connect="1" arrows="1" fold="1" page="1" pageScale="1" pageWidth="850" pageHeight="1100" math="0" shadow="0">
      <root>
        <mxCell id="0" />
        <mxCell id="1" parent="0" />
        <mxCell id="UNh0rHda73pBtn_PzT1t-31" style="edgeStyle=elbowEdgeStyle;rounded=0;orthogonalLoop=1;jettySize=auto;html=1;elbow=vertical;curved=0;" edge="1" parent="1" source="UNh0rHda73pBtn_PzT1t-1" target="UNh0rHda73pBtn_PzT1t-21">
          <mxGeometry relative="1" as="geometry" />
        </mxCell>
        <mxCell id="UNh0rHda73pBtn_PzT1t-32" style="edgeStyle=elbowEdgeStyle;rounded=0;orthogonalLoop=1;jettySize=auto;html=1;elbow=vertical;curved=0;" edge="1" parent="1">
          <mxGeometry relative="1" as="geometry">
            <mxPoint x="119.32352941176475" y="560.0005882352941" as="sourcePoint" />
            <mxPoint x="399.5" y="560.0005882352941" as="targetPoint" />
          </mxGeometry>
        </mxCell>
        <mxCell id="UNh0rHda73pBtn_PzT1t-1" value="&lt;font style=&quot;font-size: 14px;&quot;&gt;&lt;b&gt;Utilisateur&lt;/b&gt;&lt;/font&gt;" style="shape=umlLifeline;perimeter=lifelinePerimeter;whiteSpace=wrap;html=1;container=1;dropTarget=0;collapsible=0;recursiveResize=0;outlineConnect=0;portConstraint=eastwest;newEdgeStyle={&quot;edgeStyle&quot;:&quot;elbowEdgeStyle&quot;,&quot;elbow&quot;:&quot;vertical&quot;,&quot;curved&quot;:0,&quot;rounded&quot;:0};size=40;" vertex="1" parent="1">
          <mxGeometry x="40" y="400" width="160" height="720" as="geometry" />
        </mxCell>
        <mxCell id="UNh0rHda73pBtn_PzT1t-29" style="edgeStyle=elbowEdgeStyle;rounded=0;orthogonalLoop=1;jettySize=auto;html=1;elbow=vertical;curved=0;" edge="1" parent="1">
          <mxGeometry relative="1" as="geometry">
            <mxPoint x="679.5" y="720.0023529411766" as="sourcePoint" />
            <mxPoint x="399.32352941176464" y="720.0023529411766" as="targetPoint" />
          </mxGeometry>
        </mxCell>
        <mxCell id="UNh0rHda73pBtn_PzT1t-2" value="&lt;font style=&quot;font-size: 14px;&quot;&gt;&lt;b&gt;BDD&lt;/b&gt;&lt;/font&gt;" style="shape=umlLifeline;perimeter=lifelinePerimeter;whiteSpace=wrap;html=1;container=1;dropTarget=0;collapsible=0;recursiveResize=0;outlineConnect=0;portConstraint=eastwest;newEdgeStyle={&quot;edgeStyle&quot;:&quot;elbowEdgeStyle&quot;,&quot;elbow&quot;:&quot;vertical&quot;,&quot;curved&quot;:0,&quot;rounded&quot;:0};" vertex="1" parent="1">
          <mxGeometry x="600" y="420" width="160" height="700" as="geometry" />
        </mxCell>
        <mxCell id="UNh0rHda73pBtn_PzT1t-10" style="edgeStyle=elbowEdgeStyle;rounded=0;orthogonalLoop=1;jettySize=auto;html=1;elbow=vertical;curved=0;" edge="1" parent="1">
          <mxGeometry relative="1" as="geometry">
            <mxPoint x="399.5" y="599.5" as="sourcePoint" />
            <mxPoint x="119.5" y="599.5" as="targetPoint" />
            <Array as="points">
              <mxPoint x="250" y="599.5" />
              <mxPoint x="270" y="589.5" />
            </Array>
          </mxGeometry>
        </mxCell>
        <mxCell id="UNh0rHda73pBtn_PzT1t-12" style="edgeStyle=elbowEdgeStyle;rounded=0;orthogonalLoop=1;jettySize=auto;html=1;elbow=vertical;curved=0;" edge="1" parent="1">
          <mxGeometry relative="1" as="geometry">
            <mxPoint x="399.5" y="680" as="sourcePoint" />
            <mxPoint x="119.5" y="680" as="targetPoint" />
          </mxGeometry>
        </mxCell>
        <mxCell id="UNh0rHda73pBtn_PzT1t-13" style="edgeStyle=elbowEdgeStyle;rounded=0;orthogonalLoop=1;jettySize=auto;html=1;elbow=vertical;curved=0;" edge="1" parent="1">
          <mxGeometry relative="1" as="geometry">
            <mxPoint x="399.5" y="680" as="sourcePoint" />
            <mxPoint x="679.5" y="680" as="targetPoint" />
          </mxGeometry>
        </mxCell>
        <mxCell id="UNh0rHda73pBtn_PzT1t-4" value="&lt;font style=&quot;font-size: 14px;&quot;&gt;&lt;b&gt;APPLICATION&lt;/b&gt;&lt;/font&gt;" style="shape=umlLifeline;perimeter=lifelinePerimeter;whiteSpace=wrap;html=1;container=1;dropTarget=0;collapsible=0;recursiveResize=0;outlineConnect=0;portConstraint=eastwest;newEdgeStyle={&quot;edgeStyle&quot;:&quot;elbowEdgeStyle&quot;,&quot;elbow&quot;:&quot;vertical&quot;,&quot;curved&quot;:0,&quot;rounded&quot;:0};size=40;" vertex="1" parent="1">
          <mxGeometry x="320" y="400" width="160" height="720" as="geometry" />
        </mxCell>
        <mxCell id="UNh0rHda73pBtn_PzT1t-5" value="" style="shape=umlActor;verticalLabelPosition=bottom;verticalAlign=top;html=1;" vertex="1" parent="1">
          <mxGeometry x="90" y="330" width="60" height="60" as="geometry" />
        </mxCell>
        <mxCell id="UNh0rHda73pBtn_PzT1t-11" style="edgeStyle=elbowEdgeStyle;rounded=0;orthogonalLoop=1;jettySize=auto;html=1;elbow=vertical;curved=0;" edge="1" parent="1">
          <mxGeometry relative="1" as="geometry">
            <mxPoint x="120" y="640" as="sourcePoint" />
            <mxPoint x="400.5" y="640" as="targetPoint" />
          </mxGeometry>
        </mxCell>
        <mxCell id="UNh0rHda73pBtn_PzT1t-14" value="Ref" style="shape=umlFrame;whiteSpace=wrap;html=1;pointerEvents=0;recursiveResize=0;container=1;collapsible=0;width=50;fillColor=#d5e8d4;strokeColor=#82b366;swimlaneFillColor=none;height=40;strokeWidth=0;" vertex="1" parent="1">
          <mxGeometry x="80" y="480" width="710" height="40" as="geometry" />
        </mxCell>
        <mxCell id="UNh0rHda73pBtn_PzT1t-15" value="&lt;div&gt;&lt;span style=&quot;background-color: initial;&quot;&gt;&lt;b&gt;&lt;font style=&quot;font-size: 18px;&quot;&gt;S&#39;ithentifier&lt;/font&gt;&lt;/b&gt;&lt;/span&gt;&lt;br&gt;&lt;/div&gt;" style="text;align=center;html=1;fillColor=#f8cecc;strokeColor=#b85450;" vertex="1" parent="UNh0rHda73pBtn_PzT1t-14">
          <mxGeometry width="590" height="40" relative="1" as="geometry">
            <mxPoint x="50" as="offset" />
          </mxGeometry>
        </mxCell>
        <mxCell id="UNh0rHda73pBtn_PzT1t-21" value="ALT" style="shape=umlFrame;whiteSpace=wrap;html=1;pointerEvents=0;recursiveResize=0;container=1;collapsible=0;width=50;height=50;" vertex="1" parent="1">
          <mxGeometry x="40" y="760" width="720" height="340" as="geometry" />
        </mxCell>
        <mxCell id="UNh0rHda73pBtn_PzT1t-24" value="" style="endArrow=none;dashed=1;html=1;rounded=0;entryX=0.998;entryY=0.463;entryDx=0;entryDy=0;entryPerimeter=0;exitX=-0.005;exitY=0.554;exitDx=0;exitDy=0;exitPerimeter=0;fillColor=#e51400;strokeColor=#B20000;" edge="1" parent="UNh0rHda73pBtn_PzT1t-21" target="UNh0rHda73pBtn_PzT1t-21">
          <mxGeometry width="50" height="50" relative="1" as="geometry">
            <mxPoint x="8.970602038971265e-14" y="159.99999999999991" as="sourcePoint" />
            <mxPoint x="725.0400000000001" y="156.76000000000013" as="targetPoint" />
          </mxGeometry>
        </mxCell>
        <mxCell id="UNh0rHda73pBtn_PzT1t-26" value="&lt;font color=&quot;#40b800&quot; style=&quot;font-size: 13px;&quot;&gt;[DONNES CORRECTE]&lt;/font&gt;" style="text;strokeColor=none;align=center;fillColor=none;html=1;verticalAlign=middle;whiteSpace=wrap;rounded=0;" vertex="1" parent="UNh0rHda73pBtn_PzT1t-21">
          <mxGeometry x="90" width="150" height="30" as="geometry" />
        </mxCell>
        <mxCell id="UNh0rHda73pBtn_PzT1t-27" value="&lt;font color=&quot;#ff0000&quot; style=&quot;font-size: 13px;&quot;&gt;[DONNES INCORRECTE]&lt;/font&gt;" style="text;strokeColor=none;align=center;fillColor=none;html=1;verticalAlign=middle;whiteSpace=wrap;rounded=0;" vertex="1" parent="UNh0rHda73pBtn_PzT1t-21">
          <mxGeometry x="90" y="160" width="170" height="30" as="geometry" />
        </mxCell>
      </root>
    </mxGraphModel>
  </diagram>
</mxfile>
